<svg xmlns="http://www.w3.org/2000/svg" viewBox="0 0 512 512">
  <defs>
    <linearGradient id="bg" x1="0%" y1="0%" x2="100%" y2="100%">
      <stop offset="0%" style="stop-color:#1e293b"/>
      <stop offset="100%" style="stop-color:#0f172a"/>
    </linearGradient>
    <linearGradient id="shield" x1="0%" y1="0%" x2="100%" y2="100%">
      <stop offset="0%" style="stop-color:#3b82f6"/>
      <stop offset="100%" style="stop-color:#6366f1"/>
    </linearGradient>
  </defs>
  <!-- Background rounded square -->
  <rect width="512" height="512" rx="108" fill="url(#bg)"/>
  <!-- Shield -->
  <path d="M256 72c0 0-120 40-160 80v120c0 100 80 160 160 180 80-20 160-80 160-180V152C376 112 256 72 256 72z" fill="url(#shield)" opacity="0.9"/>
  <!-- Heart rate line -->
  <polyline points="130,280 200,280 225,220 255,340 285,240 310,280 380,280" fill="none" stroke="#ffffff" stroke-width="16" stroke-linecap="round" stroke-linejoin="round"/>
  <!-- Plus sign -->
  <rect x="238" y="110" width="36" height="80" rx="8" fill="#ffffff" opacity="0.9"/>
  <rect x="218" y="130" width="76" height="36" rx="8" fill="#ffffff" opacity="0.9"/>
</svg>
